<svg xmlns="http://www.w3.org/2000/svg" width="56" height="56" viewBox="0 0 56 56">
  <g id="Avatar" transform="translate(0 -0.152)">
    <g id="Body_Type" data-name="Body Type" transform="translate(0 0.152)">
      <g id="Icon_Sedan" data-name="Icon / Sedan">
        <g id="Icon_Sedan-2" data-name="Icon / Sedan">
          <rect id="Rectangle" width="56" height="56" fill="none"/>
          <g id="car_5_" data-name="car (5)" transform="translate(4.658 18.98)">
            <path id="Shape" d="M6.9,3.9a3.325,3.325,0,0,0,.031-.435A3.467,3.467,0,1,0,0,3.466c0,.1.006.2.015.3A3.464,3.464,0,0,0,6.9,3.9Z" transform="translate(34.465 9.416)" fill="#f48453"/>
            <path id="Shape-2" data-name="Shape" d="M6.9,3.9a3.325,3.325,0,0,0,.031-.435A3.467,3.467,0,1,0,0,3.466c0,.1.006.2.015.3A3.464,3.464,0,0,0,6.9,3.9Z" transform="translate(5.672 9.416)" fill="#f48453"/>
            <path id="Shape-3" data-name="Shape" d="M33.92,13.984a4.24,4.24,0,0,1-.136-.75c-.008-.115-.017-.232-.017-.349a4.164,4.164,0,1,1,8.329,0,4.3,4.3,0,0,1-.036.522c-.013.088-.029.171-.046.259A10.115,10.115,0,0,0,45.3,12.9a4.941,4.941,0,0,0,.625-2.787,19.391,19.391,0,0,0-.671-2.094c-.449-1.2-8.874-2.959-9.724-2.977-2.89-1.222-7.8-3.571-8.9-3.949-6.456-2.238-13.2-.407-14.693-.063S6.131,3.2,5.013,3.545a33.934,33.934,0,0,1-3.492.683.837.837,0,0,0-.708.825V7.62A2.391,2.391,0,0,0,0,9.534a3.008,3.008,0,0,0,1.354,2.7l3.535.667.088.006c0-.008,0-.015,0-.023a4.164,4.164,0,0,1,8.329,0,3.918,3.918,0,0,1-.036.522c-.008.054-.019.107-.029.159l20.671.418Z" transform="translate(0 0)" fill="#f48453"/>
          </g>
        </g>
      </g>
    </g>
  </g>
</svg>
