<svg id="Icon_Contact" data-name="Icon / Contact" xmlns="http://www.w3.org/2000/svg" width="39" height="39" viewBox="0 0 39 39">
  <g id="Icon_Contact-2" data-name="Icon / Contact">
    <rect id="Rectangle" width="39" height="39" fill="none"/>
    <g id="contacts" transform="translate(5.73 3.25)">
      <path id="Shape" d="M24.375,32.5H4.063a2.712,2.712,0,0,1-2.709-2.709v-.677a.678.678,0,0,1,.677-.677H3.386a.676.676,0,1,0,0-1.353H.677a.677.677,0,1,1,0-1.354h.677V22.344a.678.678,0,0,1,.677-.677H3.386a.677.677,0,0,0,0-1.354H.677a.677.677,0,0,1,0-1.354h.677V15.573a.678.678,0,0,1,.677-.677H3.386a.677.677,0,1,0,0-1.354H.677a.677.677,0,1,1,0-1.354h.677V8.8a.678.678,0,0,1,.677-.677H3.386a.677.677,0,0,0,0-1.354H.677a.677.677,0,1,1,0-1.354h.677V2.709A2.712,2.712,0,0,1,4.063,0H24.375a2.712,2.712,0,0,1,2.709,2.709V29.791A2.712,2.712,0,0,1,24.375,32.5ZM8.276,6.771a1.507,1.507,0,0,0-1.5,1.5A14.762,14.762,0,0,0,21.516,23.021a1.507,1.507,0,0,0,1.5-1.5V18.628a1.507,1.507,0,0,0-1.5-1.5,8.68,8.68,0,0,1-2.733-.434,1.518,1.518,0,0,0-.493-.081,1.389,1.389,0,0,0-.981.38l-1.65,1.246a9.488,9.488,0,0,1-4.1-4.1l1.186-1.579a1.513,1.513,0,0,0,.37-1.534,8.761,8.761,0,0,1-.436-2.742,1.507,1.507,0,0,0-1.5-1.5Z" transform="translate(0)" fill="#f48453"/>
    </g>
  </g>
</svg>
