<svg id="Groupe_2" data-name="Groupe 2" xmlns="http://www.w3.org/2000/svg" xmlns:xlink="http://www.w3.org/1999/xlink" width="103" height="103" viewBox="0 0 103 103">
  <defs>
    <clipPath id="clip-path">
      <rect id="Rectangle_1" data-name="Rectangle 1" width="103" height="103" fill="none"/>
    </clipPath>
  </defs>
  <g id="Groupe_1" data-name="Groupe 1" clip-path="url(#clip-path)">
    <path id="Tracé_1" data-name="Tracé 1" d="M88.437,103H14.563A14.563,14.563,0,0,1,0,88.437V14.563A14.563,14.563,0,0,1,14.563,0H88.437A14.563,14.563,0,0,1,103,14.563V88.437A14.563,14.563,0,0,1,88.437,103" fill="#f48453"/>
    <path id="Tracé_2" data-name="Tracé 2" d="M122.509,121.23a6.735,6.735,0,1,1-6.735-6.735,6.735,6.735,0,0,1,6.735,6.735" transform="translate(-77.492 -81.369)" fill="#fff"/>
    <path id="Tracé_3" data-name="Tracé 3" d="M218.067,69.775a6.735,6.735,0,1,1-6.735-6.735,6.735,6.735,0,0,1,6.735,6.735" transform="translate(-145.402 -44.801)" fill="#fff"/>
    <path id="Tracé_4" data-name="Tracé 4" d="M88.175,175.4a8.735,8.735,0,0,1-5.03-1.621c-4.789-3.367-7.424-11.633-1.46-25.039-1.877-1.739-3.346-1.769-4.342-1.606-7.25,1.179-16.364,17.894-20.406,28.152L51,172.946c1.2-3.061,12.146-29.966,25.316-32.112a10.873,10.873,0,0,1,8.314,2.088c7.029-12.6,14.067-18.18,20.942-16.592,14.807,3.428,16.894,37.43,17.181,47.769l-6.378.177c-.713-25.7-6.7-40.447-12.242-41.73-3.81-.885-9.358,4.8-14.877,15.225,9.382,12.118,8.853,20.77,5.033,24.93a8.257,8.257,0,0,1-6.115,2.7m-1.927-20.919c-3.018,8.49-1.178,12.852.566,14.079a2.021,2.021,0,0,0,2.776-.171c1.331-1.449,1.96-6.024-3.342-13.908" transform="translate(-36.244 -89.592)" fill="#fff"/>
  </g>
</svg>
