<svg xmlns="http://www.w3.org/2000/svg" width="20.236" height="21.27" viewBox="0 0 20.236 21.27">
  <path id="icon" d="M364.863,488.268h-1.484a2.2,2.2,0,0,1-2.264-2.133c0-.016,0-.031,0-.047a2.023,2.023,0,0,0-2.006-1.936,1.686,1.686,0,0,0-.959.245,2.31,2.31,0,0,1-1.155.319,2.262,2.262,0,0,1-1.935-1.106l-.746-1.276a2.123,2.123,0,0,1-.022-2.18,2.243,2.243,0,0,1,.871-.839,1.76,1.76,0,0,0,.686-.681,1.892,1.892,0,0,0,.2-1.452,1.955,1.955,0,0,0-.915-1.208,2.172,2.172,0,0,1-.835-2.96l.029-.049.731-1.255a2.265,2.265,0,0,1,3.071-.808,2.022,2.022,0,0,0,.959.238,2.088,2.088,0,0,0,1.773-.972,1.633,1.633,0,0,0,.252-.936,1.9,1.9,0,0,1,.3-1.127A2.346,2.346,0,0,1,363.346,467h1.536a2.3,2.3,0,0,1,1.94,1.106,1.892,1.892,0,0,1,.293,1.127,1.64,1.64,0,0,0,.25.936,2.094,2.094,0,0,0,1.782.972,2.056,2.056,0,0,0,.959-.238,2.252,2.252,0,0,1,3.061.808l.729,1.255a2.153,2.153,0,0,1-.722,2.962l-.084.048a1.945,1.945,0,0,0-.909,1.21,1.88,1.88,0,0,0,.213,1.448,1.674,1.674,0,0,0,.676.681,2.457,2.457,0,0,1,.882.839,2.156,2.156,0,0,1-.021,2.18l-.762,1.276a2.24,2.24,0,0,1-3.062.8l-.021-.012a1.73,1.73,0,0,0-.959-.245,2.023,2.023,0,0,0-2.015,1.936,2.194,2.194,0,0,1-2.207,2.181Zm-.733-13.633a3.056,3.056,0,0,0-3.09,3.01,2.936,2.936,0,0,0,.9,2.127,3.125,3.125,0,0,0,2.188.873,3,3,0,0,0,2.17-5.131A3.07,3.07,0,0,0,364.13,474.634Z" transform="translate(-354.001 -466.999)" fill="#f48453"/>
</svg>
