<svg id="Icon_Group" data-name="Icon / Group" xmlns="http://www.w3.org/2000/svg" width="41.615" height="41.615" viewBox="0 0 41.615 41.615">
  <g id="Icon_Group-2" data-name="Icon / Group">
    <rect id="Rectangle" width="41.615" height="41.615" fill="none"/>
    <g id="users" transform="translate(3.468 6.079)">
      <path id="Path" d="M5.923,14.373c3.271,0,5.923-3.218,5.923-7.186S10.975,0,5.923,0,0,3.218,0,7.186,2.652,14.373,5.923,14.373Z" transform="translate(11.382 0)" fill="#f48453"/>
      <path id="Path-2" data-name="Path" d="M22.361,10.131C22.251,3.217,21.347,1.247,14.43,0a4.149,4.149,0,0,1-3.243,1.239A4.148,4.148,0,0,1,7.944,0C1.1,1.233.143,3.174.017,9.907c-.01.55-.015.579-.017.515,0,.12,0,.341,0,.726,0,0,1.647,3.316,11.186,3.316s11.186-3.316,11.186-3.316c0-.248,0-.42,0-.537A4.342,4.342,0,0,1,22.361,10.131Z" transform="translate(6.118 14.924)" fill="#f48453"/>
      <path id="Path-3" data-name="Path" d="M2.195,11.673c2.657,0,4.81-2.613,4.81-5.837S6.3,0,2.195,0A6.866,6.866,0,0,0,.4.213,11.769,11.769,0,0,1,1.477,5.77,9.847,9.847,0,0,1,0,11.03,4.124,4.124,0,0,0,2.195,11.673Z" transform="translate(23.33 1.416)" fill="#f48453"/>
      <path id="Path-4" data-name="Path" d="M9.3,8.228C9.209,2.613,8.475,1.013,2.857,0A3.369,3.369,0,0,1,.223,1.007C.147,1.007.073,1,0,1A7.39,7.39,0,0,1,3.021,3.338C4.378,5.2,4.689,7.692,4.754,11.358c3.78-.746,4.554-2.3,4.554-2.3,0-.2,0-.342,0-.438A3.321,3.321,0,0,1,9.3,8.228Z" transform="translate(25.302 13.537)" fill="#f48453"/>
      <path id="Path-5" data-name="Path" d="M4.81,11.673a4.125,4.125,0,0,0,2.195-.644A9.847,9.847,0,0,1,5.528,5.77,11.77,11.77,0,0,1,6.605.213,6.864,6.864,0,0,0,4.81,0C.707,0,0,2.613,0,5.837S2.154,11.673,4.81,11.673Z" transform="translate(4.275 1.416)" fill="#f48453"/>
      <path id="Path-6" data-name="Path" d="M9.308,1c-.073,0-.146.006-.223.006A3.369,3.369,0,0,1,6.451,0C.833,1.013.1,2.613.01,8.228A3.4,3.4,0,0,1,0,8.617c0,.1,0,.234,0,.438,0,0,.775,1.558,4.554,2.3.065-3.667.376-6.162,1.733-8.021A7.39,7.39,0,0,1,9.308,1Z" transform="translate(0 13.537)" fill="#f48453"/>
    </g>
  </g>
</svg>
