<svg xmlns="http://www.w3.org/2000/svg" width="22" height="22" viewBox="0 0 22 22">
  <g id="Groupe_55" data-name="Groupe 55" transform="translate(10 15)">
    <g id="Layer1_0_FILL">
      <path id="Tracé_150" data-name="Tracé 150" d="M11.7,15.3a.967.967,0,0,0-1.4,0c-.1.1-.1.1-.1.2-.1.2-.2.3-.2.5a1.025,1.025,0,0,0,1,1,1.025,1.025,0,0,0,1-1c0-.2-.1-.3-.1-.5l-.2-.2" transform="translate(-10 -15)" fill="#f13b66"/>
    </g>
  </g>
  <g id="Groupe_56" data-name="Groupe 56">
    <path id="Tracé_151" data-name="Tracé 151" d="M11,22a10.8,10.8,0,0,1-7.8-3.2A10.968,10.968,0,0,1,0,11,11.03,11.03,0,0,1,3.2,3.1,11.306,11.306,0,0,1,11,0a10.955,10.955,0,0,1,7.8,3.1A11.03,11.03,0,0,1,22,11a10.968,10.968,0,0,1-3.2,7.8A10.636,10.636,0,0,1,11,22ZM11,2A8.6,8.6,0,0,0,4.6,4.6,8.667,8.667,0,0,0,2,11a8.6,8.6,0,0,0,2.6,6.3A8.693,8.693,0,0,0,11,20a8.6,8.6,0,0,0,6.3-2.6A8.693,8.693,0,0,0,20,11a8.536,8.536,0,0,0-2.7-6.4A8.232,8.232,0,0,0,11,2Zm0,11a.945.945,0,0,1-1-1V6a.945.945,0,0,1,1-1,.945.945,0,0,1,1,1v6A.945.945,0,0,1,11,13Z" transform="translate(0)" fill="#f13b66"/>
  </g>
</svg>