<?xml version="1.0" encoding="UTF-8"?><svg id="Calque_2" xmlns="http://www.w3.org/2000/svg" viewBox="0 0 266.79 232.1"><defs><style>.cls-1{fill:#f48453;stroke-width:0px;}</style></defs><g id="Calque_1-2"><path class="cls-1" d="m157.88,168.73c-5.83-21.84-19.26-35.88-32.65-34.14-12.33,1.59-21.47,16.35-22.73,36.73-.32,5.06-.13,10.32.55,15.63,1.66,12.81,6.07,24.52,12.42,32.96,5.96,7.93,13.02,12.18,20.09,12.18.76,0,1.51-.05,2.27-.15,15.71-2.04,25.65-25.53,22.18-52.38-.48-3.7-1.2-7.35-2.14-10.85Zm-20.55,59.26c-6.33.82-12.96-2.9-18.65-10.47-5.94-7.9-10.08-18.94-11.65-31.07-.65-5.06-.83-10.06-.53-14.87,1.14-18.41,8.88-31.68,19.25-33.02.57-.07,1.13-.11,1.7-.11,10.65,0,21.62,12.77,26.57,31.32.89,3.33,1.58,6.81,2.04,10.33,3.19,24.66-5.2,46.14-18.72,47.89Z"/><path class="cls-1" d="m266.21,164.83c-1.53-11.84-5.94-22.61-12.39-30.34-4.75-5.68-10.22-9.24-15.86-10.46,2.79-1.82,4.63-4.96,4.63-8.54,0-5.63-4.57-10.2-10.2-10.2s-10.2,4.57-10.2,10.2c0,2.58.97,4.94,2.55,6.73l-18.25,3.08c0-7.45-.11-12.04-.36-13.98-.2-1.58-1.01-2.89-2.35-3.8-4.19-2.84-13.1-.92-15.39-.35-13.53-2.45-18.4,2.71-19.99,5.45-38.23-2.75-68.21-26.3-68.51-26.54-.86-.69-2.12-.55-2.81.32-.69.86-.55,2.12.32,2.81,1.26,1.01,30.8,24.21,69.86,27.32l.1,14.87-15.71,2.65c2.36-2.01,3.87-5.01,3.87-8.36,0-6.07-4.92-10.98-10.98-10.98s-10.98,4.92-10.98,10.98c0,2.14.62,4.13,1.68,5.81-11.05-4.76-20.71-5.35-28.81-1.73-11.88,5.31-16.69,18.01-18.19,23.14l-33.53-11.42c-.27-6.56-1.33-35.09.05-49.34.46-4.72-.5-8.37-2.85-10.85-3.08-3.26-7.36-3.11-7.46-3.11h-20.71l-4.05,17.02c-.51,0-1.01.04-1.5.1-6.38.82-11.69,6.16-14.94,15.01-3.09,8.42-4,19.15-2.56,30.22,1.43,11.07,5.05,21.22,10.18,28.57,4.91,7.04,10.73,10.82,16.54,10.82.58,0,1.15-.04,1.73-.11,9.68-1.25,16.73-12.99,17.97-29.91.37-4.92.21-10.08-.47-15.33-2.6-20.05-12.07-35.83-22.96-38.86l3.22-13.55h17.62s2.72-.05,4.52,1.89c1.5,1.61,2.08,4.19,1.74,7.68-1.58,16.37-.07,49.86,0,51.27l.06,1.36,40.3,13.72.46-2.22c.03-.17,3.62-16.76,16.49-22.49,8.88-3.95,20.2-1.97,33.66,5.89l.63.37,24.88-4.19v17.96l39.25-4.66v-20.43l19.66-3.32c-13.34,5.43-21.49,25.24-18.62,47.4,3.04,23.48,17.38,41.27,32.64,41.27.84,0,1.68-.05,2.52-.16,16.18-2.1,26.73-23.95,23.52-48.71Zm-223.56-29.72c.65,4.98.79,9.86.44,14.51h0c-1.08,14.72-6.9,25.26-14.49,26.24-4.83.63-9.97-2.58-14.47-9.03-4.77-6.83-8.14-16.35-9.49-26.8-1.36-10.45-.52-20.51,2.35-28.33,2.71-7.39,6.86-11.8,11.71-12.42.38-.05.77-.08,1.16-.08s.76.02,1.15.07c9.68,1.14,19.19,16.88,21.65,35.83Zm159.84,10.11l-31.25,3.71v-15.17c.08-.22.12-.45.12-.69h0l-.11-16.84.3-.96c.09-.28,2.3-6.8,16.53-4.09l.44.08.44-.11c3.9-1.02,10.38-1.8,12.58-.31.39.26.57.54.62.98.15,1.16.31,4.23.32,12.08h0v21.33Zm39.69,64.35c-14,1.82-27.75-15.08-30.68-37.66-2.92-22.58,6.08-42.42,20.07-44.23.68-.09,1.36-.13,2.05-.13,5.95,0,11.96,3.31,17.13,9.5,5.98,7.15,10.06,17.2,11.5,28.29,2.92,22.58-6.08,42.42-20.07,44.23Z"/><path class="cls-1" d="m206.6,37.95l11.64-1.16c1.32,1.87,4.6,8.99-3.58,26.89l-.61,1.33,20.8,18.92c.34.45.59,1.06.54,1.24,0,0-.66.88-4.58.88-9.7,0-72,4.8-80.17,5.44l-22.92-18.33-.04-.06c2.39-.04,4.91-.15,7.54-.31,38.04-2.33,73.85-5.85,74.21-5.89,1.1-.11,1.9-1.09,1.79-2.19-.11-1.1-1.09-1.9-2.19-1.79-.36.04-36.1,3.55-74.06,5.88-3.25.2-6.33.31-9.19.32-.03-1.81.35-4.57,1.78-8.64,3.71-10.5,4.09-17.78,1.15-22.26-1.85-2.83-4.94-4.42-9.17-4.72-10.93-.78-18.89-.79-18.97-.79h-2.06l.84,29.54c.05,1.1,1.1,10.52,23.13,10.85.83,2.1,2.2,3,2.94,3.34l23.94,19.15.79-.06c.71-.06,70.64-5.49,80.64-5.49,4.53,0,7.22-1.05,8.21-3.2,1.22-2.65-.95-5.3-1.2-5.59l-18.93-17.24c9.72-22.12,2.99-29.5,1.5-30.78-.45-.38-1.02-.56-1.62-.5l-10.82,1.08-11.5-10.39c-.82-.74-2.08-.68-2.83.14-.74.82-.68,2.08.14,2.83l12.82,11.58Zm-82.79,21.18c-1.37,3.89-2.05,7.22-2.01,9.95-17.44-.45-18.41-6.98-18.42-6.98l-.72-25.38c3.02.05,9.1.22,16.63.76,2.96.21,4.96,1.17,6.11,2.92,1.49,2.28,2.43,7.37-1.58,18.73Z"/><path class="cls-1" d="m11.45,39.03h.13s49.46-1.17,49.46-1.17c1.1-.03,1.98-.94,1.95-2.05-.03-1.1-.91-1.97-2.05-1.95l-49.15,1.17c-.68-.14-4.38-1.23-4.76-8.03-.39-6.88,5.42-8.18,6.52-8.36h51.27c-.04.91.07,1.81.34,2.68.96,3.05,3.76,5.31,7.87,6.44l-5.96,7.83c-.5.65-.58,1.51-.22,2.25.36.74,1.1,1.19,1.92,1.19h10.9l10.18,25.86c2.05,69.94-9.97,77.33-10.09,77.4.08-.04.13-.06.13-.06l1.42,3.74c1.51-.57,14.71-7.72,12.54-81.3-.01-.4-.09-.8-.24-1.17l-10.34-26.29c-.53-1.33-1.79-2.2-3.23-2.2h-7.52l4.98-6.54c.71.05,1.43.09,2.17.09,3.75,0,7.85-.65,11.87-1.91,1.12-.35,2.22-.75,3.27-1.18l34.66-.42h0s8.05-.1,8.05-.1c1.39,3.52,5.36,5.91,10.99,6.56,1.06.12,2.18.18,3.32.18,3.75,0,7.85-.65,11.87-1.91,1.25-.39,2.48-.84,3.65-1.32,2.64-1.09,5.03-2.38,7.12-3.82l13.9-.32c1.1-.03,1.98-.94,1.95-2.05-.03-1.1-.94-1.97-2.05-1.95l-9.1.21c3.01-3.41,4.14-6.99,3.15-10.16-2.17-6.95-13.76-9.3-26.38-5.36-9.26,2.9-16.5,8.43-18.44,14.08-.22.63-.35,1.25-.43,1.87l-8.27.1c-2.5-6.79-13.22-6.46-13.61-6.44h-6.18c1.44-2.53,1.86-5.07,1.14-7.38-2.17-6.95-13.76-9.3-26.38-5.36-8.53,2.67-15.33,7.57-17.87,12.74H13.39l-.26.02c-3.71.49-10.59,3.75-10.1,12.57.61,10.86,8.09,11.77,8.41,11.8Zm129.85-18.6c1.52-4.43,7.89-9.08,15.85-11.57,3.84-1.2,7.45-1.72,10.58-1.72,5.83,0,9.96,1.82,10.79,4.46.8,2.57-1.38,5.37-2.75,6.81-.78.81-1.69,1.6-2.71,2.36-.48.12-.88.42-1.15.81-1.8,1.21-3.85,2.31-6.08,3.22-1.06.44-2.17.84-3.31,1.2-4.72,1.48-9.53,2.03-13.53,1.57-4.21-.49-7.14-2.1-7.83-4.3-.27-.86-.22-1.81.15-2.84Zm-26.02-1.79c.07,0,6.35-.14,8.93,2.5l-21.7.26c.06-.04.11-.08.16-.12.55-.39,1.08-.79,1.58-1.2.06-.05.11-.1.17-.15.44-.37.86-.75,1.27-1.13.06-.06.13-.11.19-.17h9.41Zm-30.3-12.92c3.84-1.2,7.45-1.72,10.58-1.72,5.83,0,9.96,1.82,10.79,4.46.8,2.57-1.38,5.37-2.75,6.81-2.34,2.45-5.87,4.72-9.93,6.4h-.02c-1.06.44-2.17.85-3.3,1.2-4.72,1.48-9.53,2.03-13.54,1.57-4.21-.49-7.14-2.1-7.83-4.3-.27-.86-.22-1.81.15-2.84,1.52-4.43,7.89-9.08,15.85-11.57Z"/><path class="cls-1" d="m23.57,64.15c10.62.39,56.71-1.11,58.67-1.18,1.1-.04,1.97-.96,1.93-2.06-.04-1.1-.97-1.95-2.06-1.93-.48.02-47.9,1.56-58.39,1.18-3.46-.14-6.04.91-7.67,3.07-3.19,4.23-1.13,10.96-.89,11.71l.47,1.43,68.97-2.41c1.1-.04,1.97-.96,1.93-2.07-.04-1.1-.98-1.94-2.07-1.93l-65.85,2.3c-.4-1.97-.63-4.95.64-6.63.81-1.07,2.22-1.55,4.33-1.47Z"/></g></svg>