<svg id="Groupe_56" data-name="Groupe 56" xmlns="http://www.w3.org/2000/svg" xmlns:xlink="http://www.w3.org/1999/xlink" width="24.425" height="23" viewBox="0 0 24.425 23">
  <defs>
    <clipPath id="clip-path">
      <rect id="Rectangle_47" data-name="Rectangle 47" width="24.425" height="23" fill="none"/>
    </clipPath>
  </defs>
  <g id="Groupe_55" data-name="Groupe 55" clip-path="url(#clip-path)">
    <path id="Tracé_48" data-name="Tracé 48" d="M62.625,53.747a2.293,2.293,0,1,1-2.293-2.293,2.293,2.293,0,0,1,2.293,2.293" transform="translate(-52.324 -46.386)" fill="#f48453"/>
    <path id="Tracé_49" data-name="Tracé 49" d="M158.183,2.293A2.293,2.293,0,1,1,155.891,0a2.292,2.292,0,0,1,2.292,2.293" transform="translate(-138.47)" fill="#f48453"/>
    <path id="Tracé_50" data-name="Tracé 50" d="M12.654,79.817a2.973,2.973,0,0,1-1.712-.552c-1.63-1.146-2.527-3.96-.5-8.523A1.656,1.656,0,0,0,8.967,70.2c-2.468.4-5.57,6.091-6.946,9.583L0,78.983c.41-1.042,4.134-10.2,8.618-10.931a3.7,3.7,0,0,1,2.83.711c2.393-4.29,4.789-6.189,7.129-5.648,5.04,1.167,5.751,12.741,5.848,16.261l-2.171.06c-.243-8.749-2.28-13.769-4.167-14.205-1.3-.3-3.185,1.635-5.064,5.183,3.194,4.125,3.014,7.07,1.713,8.486a2.811,2.811,0,0,1-2.081.918M12,72.7c-1.027,2.89-.4,4.375.193,4.793a.688.688,0,0,0,.945-.058c.453-.493.667-2.051-1.138-4.734" transform="translate(0 -56.818)" fill="#f48453"/>
  </g>
</svg>
