<svg id="Groupe_15" data-name="Groupe 15" xmlns="http://www.w3.org/2000/svg" xmlns:xlink="http://www.w3.org/1999/xlink" width="27.933" height="27.933" viewBox="0 0 27.933 27.933">
  <defs>
    <clipPath id="clip-path">
      <rect id="Rectangle_11" data-name="Rectangle 11" width="27.933" height="27.933" fill="none"/>
    </clipPath>
  </defs>
  <g id="Groupe_14" data-name="Groupe 14" clip-path="url(#clip-path)">
    <path id="Tracé_13" data-name="Tracé 13" d="M19.311,1.063a13.966,13.966,0,1,0,8.622,12.9,13.966,13.966,0,0,0-8.622-12.9M13.964,2.877A11.275,11.275,0,0,1,25.128,12.55a1.946,1.946,0,0,1-1.838.2l-4.327-1.767a13.147,13.147,0,0,0-9.992,0L4.643,12.755a1.936,1.936,0,0,1-1.838-.2A11.275,11.275,0,0,1,13.964,2.877M12.256,22.136l-.351,3.28A12.927,12.927,0,0,1,3.468,17.5l3.618-.443a4.63,4.63,0,0,1,5.17,5.077m1.708-4.461a3.074,3.074,0,1,1,3.078-3.069,3.073,3.073,0,0,1-3.078,3.069m2.106,7.741-.349-3.264A4.606,4.606,0,0,1,20.865,17.1l3.6.441a12.861,12.861,0,0,1-8.394,7.874" transform="translate(0 0)" fill="#f48453"/>
  </g>
</svg>
