<?xml version="1.0" encoding="UTF-8" standalone="no"?><!DOCTYPE svg PUBLIC "-//W3C//DTD SVG 1.1//EN" "http://www.w3.org/Graphics/SVG/1.1/DTD/svg11.dtd"><svg width="100%" height="100%" viewBox="0 0 30 30" version="1.1" xmlns="http://www.w3.org/2000/svg" xmlns:xlink="http://www.w3.org/1999/xlink" xml:space="preserve" style="fill-rule:evenodd;clip-rule:evenodd;stroke-linecap:round;stroke-linejoin:round;stroke-miterlimit:1.5;"><g id="button"><path d="M13.5,23.5c0,0 -3.403,-4.424 -4.594,-5.973c-0.239,-0.309 -0.234,-0.741 0.01,-1.046c0,-0.001 0,-0.001 0,-0.001c0.15,-0.187 0.372,-0.303 0.611,-0.319c0.24,-0.016 0.475,0.07 0.649,0.236c0.885,0.846 2.324,2.223 2.324,2.223c0,0 0,-5.752 0,-8.12c0,-0.265 0.105,-0.52 0.293,-0.707c0.187,-0.188 0.442,-0.293 0.707,-0.293c0.552,0 1,0.448 1,1c0,1.393 0,3.75 0,3.75c0,0 3.273,0.682 4.984,1.038c0.592,0.124 1.016,0.645 1.016,1.25c0,0.536 0,1.212 0,1.852c0,1.376 -0.407,2.721 -1.17,3.865c-0.437,0.656 -0.83,1.245 -0.83,1.245l-5,0Z" style="fill:none;stroke:#9ca1bd;stroke-width:1px;"/><path d="M12.502,14.374c-1.726,-0.444 -3.002,-2.011 -3.002,-3.874c0,-2.208 1.792,-4 4,-4c2.208,0 4,1.792 4,4c0,1.771 -1.153,3.274 -2.749,3.8" style="fill:none;stroke:#9ca1bd;stroke-width:1px;"/></g></svg>