<?xml version="1.0" encoding="UTF-8" standalone="no"?><!DOCTYPE svg PUBLIC "-//W3C//DTD SVG 1.1//EN" "http://www.w3.org/Graphics/SVG/1.1/DTD/svg11.dtd"><svg width="100%" height="100%" viewBox="0 0 30 30" version="1.1" xmlns="http://www.w3.org/2000/svg" xmlns:xlink="http://www.w3.org/1999/xlink" xml:space="preserve" style="fill-rule:evenodd;clip-rule:evenodd;stroke-linecap:round;stroke-linejoin:round;stroke-miterlimit:1.5;"><g id="config"><rect x="0" y="0" width="30" height="30" style="fill:none;"/><path d="M16.073,6.563c-0.713,-0.084 -1.433,-0.084 -2.146,0l-0.317,2.076c-0.55,0.11 -1.085,0.284 -1.594,0.518l-1.477,-1.493c-0.626,0.351 -1.209,0.774 -1.736,1.262l0.963,1.866c-0.38,0.411 -0.711,0.866 -0.984,1.355l-2.073,-0.34c-0.301,0.652 -0.523,1.337 -0.663,2.042l1.876,0.943c-0.066,0.556 -0.066,1.119 0,1.675l-1.876,0.944c0.14,0.704 0.362,1.389 0.663,2.041l2.073,-0.34c0.273,0.489 0.604,0.944 0.984,1.356l-0.963,1.866c0.527,0.487 1.11,0.911 1.736,1.261l1.477,-1.493c0.509,0.235 1.044,0.409 1.594,0.518l0.317,2.076c0.713,0.084 1.433,0.084 2.146,0l0.317,-2.076c0.55,-0.109 1.085,-0.283 1.594,-0.518l1.477,1.493c0.626,-0.35 1.209,-0.774 1.736,-1.261l-0.963,-1.866c0.38,-0.412 0.711,-0.867 0.984,-1.356l2.073,0.34c0.301,-0.652 0.523,-1.337 0.663,-2.041l-1.876,-0.944c0.066,-0.556 0.066,-1.119 0,-1.675l1.876,-0.943c-0.14,-0.705 -0.362,-1.39 -0.663,-2.042l-2.073,0.34c-0.273,-0.489 -0.604,-0.944 -0.984,-1.355l0.963,-1.866c-0.527,-0.488 -1.11,-0.911 -1.736,-1.262l-1.477,1.493c-0.509,-0.234 -1.044,-0.408 -1.594,-0.518l-0.317,-2.076Zm-1.073,6.094c1.641,0 2.973,1.332 2.973,2.973c0,1.641 -1.332,2.973 -2.973,2.973c-1.641,0 -2.973,-1.332 -2.973,-2.973c0,-1.641 1.332,-2.973 2.973,-2.973Z" style="fill:none;stroke:#9ca1bd;stroke-width:1px;"/></g></svg>