<?xml version="1.0" encoding="UTF-8" standalone="no"?><!DOCTYPE svg PUBLIC "-//W3C//DTD SVG 1.1//EN" "http://www.w3.org/Graphics/SVG/1.1/DTD/svg11.dtd"><svg width="100%" height="100%" viewBox="0 0 30 30" version="1.1" xmlns="http://www.w3.org/2000/svg" xmlns:xlink="http://www.w3.org/1999/xlink" xml:space="preserve" style="fill-rule:evenodd;clip-rule:evenodd;stroke-linecap:round;stroke-linejoin:round;stroke-miterlimit:1.5;"><g><path d="M15.071,5l0.07,0.002l0.07,0.002l0.07,0.003l0.07,0.004l0.069,0.005l0.07,0.006l0.069,0.006l0.068,0.008l0.069,0.008l0.068,0.009l0.068,0.01l0.068,0.011l0.067,0.011l0.067,0.013l0.067,0.013l0.067,0.014l0.066,0.015l0.066,0.016l0.066,0.016l0.065,0.017l0.065,0.019l0.065,0.018l0.064,0.02l0.064,0.02l0.064,0.021l0.063,0.022l0.063,0.023l0.062,0.023l0.063,0.024l0.062,0.025l0.061,0.026l0.061,0.026l0.061,0.027l0.06,0.028l0.06,0.028l0.06,0.03l0.059,0.029l0.059,0.031l0.058,0.031l0.058,0.032l0.057,0.033l0.057,0.033l0.057,0.034l0.056,0.034l0.056,0.036l0.055,0.036l0.055,0.036l0.054,0.037l0.054,0.038l0.053,0.039l0.053,0.039l0.052,0.039l0.052,0.041l0.052,0.04l0.05,0.042l0.051,0.042l0.05,0.043l0.049,0.043l0.049,0.044l0.048,0.044l0.048,0.045l0.047,0.046l0.047,0.046l0.046,0.047l0.045,0.047l0.045,0.048l0.045,0.048l0.044,0.049l0.043,0.049l0.043,0.05l0.042,0.05l0.041,0.051l0.041,0.051l0.04,0.052l0.04,0.053l0.039,0.053l0.039,0.053l0.037,0.054l0.038,0.054l0.036,0.055l0.036,0.055l0.035,0.056l0.035,0.056l0.034,0.056l0.033,0.057l0.033,0.058l0.031,0.058l0.032,0.058l0.03,0.059l0.03,0.059l0.029,0.06l0.029,0.059l0.027,0.061l0.027,0.061l0.027,0.061l0.025,0.061l0.025,0.062l0.024,0.062l0.024,0.063l0.022,0.063l0.022,0.063l0.021,0.064l0.021,0.064l0.019,0.064l0.019,0.065l0.018,0.065l0.017,0.065l0.017,0.066l0.016,0.066l0.014,0.066l0.015,0.067l0.013,0.066l0.012,0.068l0.012,0.067l0.011,0.068l0.01,0.068l0.009,0.068l0.008,0.068l0.007,0.069l0.007,0.069l0.006,0.069l0.005,0.07l0.004,0.07l0.003,0.069l0.002,0.071l0.001,0.07l0.001,0.071l-0.001,0.07l-0.001,0.071l-0.002,0.07l-0.003,0.07l-0.004,0.07l-0.005,0.069l-0.006,0.069l-0.007,0.069l-0.007,0.069l-0.008,0.069l-0.009,0.068l-0.01,0.068l-0.011,0.067l-0.012,0.068l-0.012,0.067l-0.013,0.067l-0.015,0.066l-0.014,0.067l-0.016,0.066l-0.017,0.065l-0.017,0.066l-0.018,0.065l-0.019,0.064l-0.019,0.065l-0.021,0.064l-0.021,0.063l-0.022,0.064l-0.022,0.062l-0.024,0.063l-0.024,0.062l-0.025,0.062l-0.025,0.062l-0.027,0.061l-0.027,0.061l-0.027,0.06l-0.029,0.06l-0.029,0.059l-0.03,0.059l-0.03,0.059l-0.032,0.059l-0.031,0.057l-0.033,0.058l-0.033,0.057l-0.034,0.056l-0.035,0.057l-0.035,0.055l-0.036,0.055l-0.036,0.055l-0.038,0.055l-0.037,0.053l-0.039,0.054l-0.039,0.053l-0.04,0.052l-0.04,0.052l-0.041,0.051l-0.041,0.051l-0.042,0.051l-0.043,0.049l-0.043,0.05l-0.044,0.049l-0.045,0.048l-0.045,0.048l-0.045,0.047l-0.046,0.046l-0.047,0.047l-0.047,0.045l-0.048,0.045l-0.048,0.044l-0.049,0.044l-0.049,0.044l-0.05,0.042l-0.051,0.042l-0.05,0.042l-0.052,0.041l-0.052,0.04l-0.052,0.04l-0.053,0.039l-0.053,0.038l-0.054,0.038l-0.054,0.037l-0.055,0.037l-0.055,0.036l-0.056,0.035l-0.056,0.034l-0.057,0.034l-0.057,0.034l-0.057,0.032l-0.058,0.032l-0.058,0.031l-0.059,0.031l-0.059,0.03l-0.06,0.029l-0.06,0.028l-0.06,0.028l-0.061,0.027l-0.061,0.026l-0.061,0.026l-0.062,0.025l-0.063,0.024l-0.062,0.023l-0.063,0.023l-0.063,0.022l-0.064,0.021l-0.064,0.02l-0.064,0.02l-0.065,0.019l-0.065,0.018l-0.065,0.017l-0.066,0.017l-0.066,0.015l-0.066,0.015l-0.067,0.014l-0.067,0.013l-0.067,0.013l-0.067,0.012l-0.068,0.01l-0.068,0.01l-0.068,0.009l-0.069,0.009l-0.068,0.007l-0.069,0.007l-0.07,0.005l-0.069,0.005l-0.07,0.004l-0.07,0.003l-0.07,0.003l-0.07,0.001l-0.071,0l-0.071,0l-0.07,-0.001l-0.07,-0.003l-0.07,-0.003l-0.07,-0.004l-0.069,-0.005l-0.07,-0.005l-0.069,-0.007l-0.068,-0.007l-0.069,-0.009l-0.068,-0.009l-0.068,-0.01l-0.068,-0.01l-0.067,-0.012l-0.067,-0.013l-0.067,-0.013l-0.067,-0.014l-0.066,-0.015l-0.066,-0.015l-0.066,-0.017l-0.065,-0.017l-0.065,-0.018l-0.065,-0.019l-0.064,-0.02l-0.064,-0.02l-0.064,-0.021l-0.063,-0.022l-0.063,-0.023l-0.062,-0.023l-0.063,-0.024l-0.062,-0.025l-0.061,-0.026l-0.061,-0.026l-0.061,-0.027l-0.06,-0.028l-0.06,-0.028l-0.06,-0.029l-0.059,-0.03l-0.059,-0.031l-0.058,-0.031l-0.058,-0.032l-0.057,-0.032l-0.057,-0.034l-0.057,-0.034l-0.056,-0.034l-0.056,-0.035l-0.055,-0.036l-0.055,-0.037l-0.054,-0.037l-0.054,-0.038l-0.053,-0.038l-0.053,-0.039l-0.052,-0.04l-0.052,-0.04l-0.052,-0.041l-0.05,-0.042l-0.051,-0.042l-0.05,-0.042l-0.049,-0.044l-0.049,-0.044l-0.048,-0.044l-0.048,-0.045l-0.047,-0.045l-0.047,-0.047l-0.046,-0.046l-0.045,-0.047l-0.045,-0.048l-0.045,-0.048l-0.044,-0.049l-0.043,-0.05l-0.043,-0.049l-0.042,-0.051l-0.041,-0.051l-0.041,-0.051l-0.04,-0.052l-0.04,-0.052l-0.039,-0.053l-0.039,-0.054l-0.037,-0.053l-0.038,-0.055l-0.036,-0.055l-0.036,-0.055l-0.035,-0.055l-0.035,-0.057l-0.034,-0.056l-0.033,-0.057l-0.033,-0.058l-0.031,-0.057l-0.032,-0.059l-0.03,-0.059l-0.03,-0.059l-0.029,-0.059l-0.029,-0.06l-0.027,-0.06l-0.027,-0.061l-0.027,-0.061l-0.025,-0.062l-0.025,-0.062l-0.024,-0.062l-0.024,-0.063l-0.022,-0.062l-0.022,-0.064l-0.021,-0.063l-0.021,-0.064l-0.019,-0.065l-0.019,-0.064l-0.018,-0.065l-0.017,-0.066l-0.017,-0.065l-0.016,-0.066l-0.014,-0.067l-0.015,-0.066l-0.013,-0.067l-0.012,-0.067l-0.012,-0.068l-0.011,-0.067l-0.01,-0.068l-0.009,-0.068l-0.008,-0.069l-0.007,-0.069l-0.007,-0.069l-0.006,-0.069l-0.005,-0.069l-0.004,-0.07l-0.003,-0.07l-0.002,-0.07l-0.001,-0.071l-0.001,-0.07l0.001,-0.071l0.001,-0.07l0.002,-0.071l0.003,-0.069l0.004,-0.07l0.005,-0.07l0.006,-0.069l0.007,-0.069l0.007,-0.069l0.008,-0.068l0.009,-0.068l0.01,-0.068l0.011,-0.068l0.012,-0.067l0.012,-0.068l0.013,-0.066l0.015,-0.067l0.014,-0.066l0.016,-0.066l0.017,-0.066l0.017,-0.065l0.018,-0.065l0.019,-0.065l0.019,-0.064l0.021,-0.064l0.021,-0.064l0.022,-0.063l0.022,-0.063l0.024,-0.063l0.024,-0.062l0.025,-0.062l0.025,-0.061l0.027,-0.061l0.027,-0.061l0.027,-0.061l0.029,-0.059l0.029,-0.06l0.03,-0.059l0.03,-0.059l0.032,-0.058l0.031,-0.058l0.033,-0.058l0.033,-0.057l0.034,-0.056l0.035,-0.056l0.035,-0.056l0.036,-0.055l0.036,-0.055l0.038,-0.054l0.037,-0.054l0.039,-0.053l0.039,-0.053l0.04,-0.053l0.04,-0.052l0.041,-0.051l0.041,-0.051l0.042,-0.05l0.043,-0.05l0.043,-0.049l0.044,-0.049l0.045,-0.048l0.045,-0.048l0.045,-0.047l0.046,-0.047l0.047,-0.046l0.047,-0.046l0.048,-0.045l0.048,-0.044l0.049,-0.044l0.049,-0.043l0.05,-0.043l0.051,-0.042l0.05,-0.042l0.052,-0.04l0.052,-0.041l0.052,-0.039l0.053,-0.039l0.053,-0.039l0.054,-0.038l0.054,-0.037l0.055,-0.036l0.055,-0.036l0.056,-0.036l0.056,-0.034l0.057,-0.034l0.057,-0.033l0.057,-0.033l0.058,-0.032l0.058,-0.031l0.059,-0.031l0.059,-0.029l0.06,-0.03l0.06,-0.028l0.06,-0.028l0.061,-0.027l0.061,-0.026l0.061,-0.026l0.062,-0.025l0.063,-0.024l0.062,-0.023l0.063,-0.023l0.063,-0.022l0.064,-0.021l0.064,-0.02l0.064,-0.02l0.065,-0.018l0.065,-0.019l0.065,-0.017l0.066,-0.016l0.066,-0.016l0.066,-0.015l0.067,-0.014l0.067,-0.013l0.067,-0.013l0.067,-0.011l0.068,-0.011l0.068,-0.01l0.068,-0.009l0.069,-0.008l0.068,-0.008l0.069,-0.006l0.07,-0.006l0.069,-0.005l0.07,-0.004l0.07,-0.003l0.07,-0.002l0.07,-0.002l0.071,0l0.071,0Zm-0.129,1l-0.058,0.001l-0.057,0.002l-0.057,0.003l-0.058,0.003l-0.056,0.004l-0.057,0.005l-0.056,0.005l-0.057,0.006l-0.056,0.007l-0.055,0.007l-0.056,0.009l-0.055,0.008l-0.055,0.01l-0.055,0.01l-0.054,0.011l-0.055,0.011l-0.054,0.012l-0.054,0.013l-0.053,0.014l-0.053,0.014l-0.053,0.014l-0.053,0.016l-0.053,0.016l-0.052,0.016l-0.052,0.018l-0.051,0.017l-0.052,0.019l-0.051,0.019l-0.051,0.02l-0.05,0.02l-0.05,0.021l-0.05,0.021l-0.05,0.022l-0.049,0.023l-0.049,0.023l-0.048,0.024l-0.049,0.024l-0.048,0.025l-0.047,0.026l-0.048,0.026l-0.047,0.027l-0.046,0.027l-0.046,0.027l-0.046,0.029l-0.046,0.029l-0.045,0.029l-0.045,0.03l-0.044,0.03l-0.044,0.031l-0.044,0.031l-0.043,0.032l-0.043,0.033l-0.042,0.033l-0.042,0.033l-0.042,0.034l-0.041,0.035l-0.041,0.035l-0.04,0.035l-0.04,0.036l-0.04,0.036l-0.039,0.037l-0.038,0.037l-0.039,0.038l-0.037,0.038l-0.038,0.039l-0.037,0.039l-0.036,0.039l-0.036,0.04l-0.035,0.041l-0.035,0.041l-0.034,0.041l-0.034,0.041l-0.034,0.042l-0.033,0.043l-0.032,0.043l-0.032,0.043l-0.032,0.044l-0.031,0.044l-0.03,0.044l-0.03,0.045l-0.029,0.045l-0.029,0.045l-0.028,0.046l-0.028,0.047l-0.027,0.046l-0.027,0.047l-0.026,0.047l-0.025,0.048l-0.025,0.048l-0.025,0.048l-0.023,0.049l-0.024,0.049l-0.022,0.049l-0.022,0.05l-0.022,0.049l-0.021,0.051l-0.02,0.05l-0.02,0.051l-0.019,0.051l-0.018,0.051l-0.018,0.052l-0.017,0.052l-0.017,0.052l-0.016,0.052l-0.015,0.053l-0.015,0.053l-0.014,0.054l-0.013,0.053l-0.013,0.054l-0.012,0.054l-0.012,0.054l-0.011,0.055l-0.01,0.055l-0.009,0.054l-0.009,0.056l-0.008,0.055l-0.008,0.056l-0.006,0.056l-0.007,0.056l-0.005,0.057l-0.005,0.056l-0.004,0.057l-0.003,0.057l-0.002,0.058l-0.002,0.057l-0.001,0.058l-0.001,0.058l0.001,0.058l0.001,0.057l0.002,0.058l0.002,0.057l0.003,0.057l0.004,0.057l0.005,0.057l0.005,0.056l0.007,0.056l0.006,0.056l0.008,0.056l0.008,0.056l0.009,0.055l0.009,0.055l0.01,0.054l0.011,0.055l0.012,0.054l0.012,0.054l0.013,0.054l0.013,0.054l0.014,0.053l0.015,0.053l0.015,0.053l0.016,0.052l0.017,0.052l0.017,0.052l0.018,0.052l0.018,0.051l0.019,0.051l0.02,0.051l0.02,0.051l0.021,0.05l0.022,0.05l0.022,0.049l0.022,0.05l0.024,0.049l0.023,0.048l0.025,0.048l0.025,0.048l0.025,0.048l0.026,0.047l0.027,0.047l0.027,0.047l0.028,0.046l0.028,0.046l0.029,0.045l0.029,0.045l0.03,0.045l0.03,0.045l0.031,0.044l0.032,0.043l0.032,0.044l0.032,0.042l0.033,0.043l0.034,0.042l0.034,0.042l0.034,0.041l0.035,0.041l0.035,0.04l0.036,0.04l0.036,0.039l0.037,0.039l0.038,0.039l0.037,0.038l0.039,0.038l0.038,0.037l0.039,0.037l0.04,0.036l0.04,0.036l0.04,0.036l0.041,0.035l0.041,0.034l0.042,0.034l0.042,0.034l0.042,0.033l0.043,0.032l0.043,0.032l0.044,0.031l0.044,0.031l0.044,0.031l0.045,0.03l0.045,0.029l0.046,0.029l0.046,0.028l0.046,0.028l0.046,0.027l0.047,0.026l0.048,0.027l0.047,0.025l0.048,0.025l0.049,0.024l0.048,0.024l0.049,0.023l0.049,0.023l0.05,0.022l0.05,0.022l0.05,0.02l0.05,0.021l0.051,0.019l0.051,0.019l0.052,0.019l0.051,0.018l0.052,0.017l0.052,0.017l0.053,0.016l0.053,0.015l0.053,0.015l0.053,0.014l0.053,0.013l0.054,0.013l0.054,0.012l0.055,0.012l0.054,0.01l0.055,0.01l0.055,0.01l0.055,0.009l0.056,0.008l0.055,0.007l0.056,0.007l0.057,0.006l0.056,0.006l0.057,0.004l0.056,0.004l0.058,0.003l0.057,0.003l0.057,0.002l0.058,0.001l0.058,0l0.058,0l0.058,-0.001l0.057,-0.002l0.057,-0.003l0.058,-0.003l0.056,-0.004l0.057,-0.004l0.056,-0.006l0.057,-0.006l0.056,-0.007l0.055,-0.007l0.056,-0.008l0.055,-0.009l0.055,-0.01l0.055,-0.01l0.054,-0.01l0.055,-0.012l0.054,-0.012l0.054,-0.013l0.053,-0.013l0.053,-0.014l0.053,-0.015l0.053,-0.015l0.053,-0.016l0.052,-0.017l0.052,-0.017l0.051,-0.018l0.052,-0.019l0.051,-0.019l0.051,-0.019l0.05,-0.021l0.05,-0.02l0.05,-0.022l0.05,-0.022l0.049,-0.023l0.049,-0.023l0.048,-0.024l0.049,-0.024l0.048,-0.025l0.047,-0.025l0.048,-0.027l0.047,-0.026l0.046,-0.027l0.046,-0.028l0.046,-0.028l0.046,-0.029l0.045,-0.03l0.045,-0.029l0.044,-0.031l0.044,-0.031l0.044,-0.031l0.043,-0.032l0.043,-0.032l0.042,-0.033l0.042,-0.034l0.042,-0.034l0.041,-0.034l0.041,-0.035l0.04,-0.036l0.04,-0.036l0.04,-0.036l0.039,-0.037l0.038,-0.037l0.039,-0.038l0.037,-0.038l0.038,-0.039l0.036,-0.039l0.037,-0.039l0.036,-0.04l0.035,-0.04l0.035,-0.041l0.034,-0.041l0.034,-0.042l0.034,-0.042l0.033,-0.043l0.032,-0.042l0.032,-0.044l0.032,-0.043l0.031,-0.044l0.03,-0.045l0.03,-0.045l0.029,-0.045l0.029,-0.045l0.028,-0.046l0.028,-0.046l0.027,-0.047l0.027,-0.047l0.026,-0.047l0.025,-0.048l0.025,-0.048l0.025,-0.048l0.023,-0.048l0.024,-0.049l0.022,-0.05l0.022,-0.049l0.022,-0.05l0.021,-0.05l0.02,-0.051l0.02,-0.051l0.019,-0.051l0.018,-0.051l0.018,-0.052l0.017,-0.052l0.017,-0.052l0.016,-0.052l0.015,-0.053l0.015,-0.053l0.014,-0.053l0.013,-0.054l0.013,-0.054l0.012,-0.054l0.012,-0.054l0.011,-0.055l0.01,-0.054l0.009,-0.055l0.009,-0.056l0.008,-0.055l0.008,-0.056l0.006,-0.056l0.007,-0.056l0.005,-0.056l0.005,-0.057l0.004,-0.057l0.003,-0.057l0.002,-0.057l0.002,-0.058l0.001,-0.057l0.001,-0.058l-0.001,-0.058l-0.001,-0.058l-0.002,-0.057l-0.002,-0.058l-0.003,-0.057l-0.004,-0.057l-0.005,-0.056l-0.005,-0.057l-0.007,-0.056l-0.006,-0.056l-0.008,-0.056l-0.008,-0.055l-0.009,-0.055l-0.009,-0.056l-0.01,-0.054l-0.011,-0.055l-0.012,-0.054l-0.012,-0.054l-0.013,-0.054l-0.013,-0.053l-0.014,-0.054l-0.015,-0.053l-0.015,-0.052l-0.016,-0.053l-0.017,-0.052l-0.017,-0.052l-0.018,-0.052l-0.018,-0.051l-0.019,-0.051l-0.02,-0.051l-0.02,-0.05l-0.021,-0.051l-0.022,-0.049l-0.022,-0.05l-0.022,-0.049l-0.024,-0.049l-0.023,-0.049l-0.025,-0.048l-0.025,-0.048l-0.025,-0.048l-0.026,-0.047l-0.027,-0.047l-0.027,-0.046l-0.028,-0.047l-0.028,-0.045l-0.029,-0.046l-0.029,-0.045l-0.03,-0.045l-0.03,-0.044l-0.031,-0.044l-0.032,-0.044l-0.032,-0.043l-0.032,-0.043l-0.033,-0.043l-0.034,-0.042l-0.034,-0.041l-0.034,-0.041l-0.035,-0.041l-0.035,-0.041l-0.036,-0.04l-0.037,-0.039l-0.036,-0.039l-0.038,-0.039l-0.037,-0.038l-0.039,-0.038l-0.038,-0.037l-0.039,-0.037l-0.04,-0.036l-0.04,-0.036l-0.04,-0.035l-0.041,-0.035l-0.041,-0.035l-0.042,-0.034l-0.042,-0.033l-0.042,-0.033l-0.043,-0.033l-0.043,-0.032l-0.044,-0.031l-0.044,-0.031l-0.044,-0.03l-0.045,-0.03l-0.045,-0.03l-0.046,-0.028l-0.046,-0.029l-0.046,-0.027l-0.046,-0.027l-0.047,-0.027l-0.048,-0.026l-0.047,-0.026l-0.048,-0.025l-0.049,-0.024l-0.048,-0.024l-0.049,-0.023l-0.049,-0.023l-0.05,-0.022l-0.05,-0.021l-0.05,-0.021l-0.05,-0.02l-0.051,-0.02l-0.051,-0.019l-0.052,-0.019l-0.051,-0.017l-0.052,-0.018l-0.052,-0.016l-0.053,-0.016l-0.053,-0.016l-0.053,-0.014l-0.053,-0.014l-0.053,-0.014l-0.054,-0.013l-0.054,-0.012l-0.055,-0.011l-0.054,-0.011l-0.055,-0.01l-0.055,-0.01l-0.055,-0.008l-0.056,-0.009l-0.055,-0.007l-0.056,-0.007l-0.057,-0.006l-0.056,-0.005l-0.057,-0.005l-0.056,-0.004l-0.058,-0.003l-0.057,-0.003l-0.057,-0.002l-0.058,-0.001l-0.058,0l-0.058,0Z" style="fill:#fff;"/><rect x="0" y="0" width="30" height="30" style="fill:none;"/><path d="M7.256,25.5c0,-4.274 3.47,-7.744 7.744,-7.744c4.274,0 7.744,3.47 7.744,7.744" style="fill:none;stroke:#fff;stroke-width:1px;"/></g></svg>