<?xml version="1.0" encoding="UTF-8" standalone="no"?><!DOCTYPE svg PUBLIC "-//W3C//DTD SVG 1.1//EN" "http://www.w3.org/Graphics/SVG/1.1/DTD/svg11.dtd"><svg width="100%" height="100%" viewBox="0 0 30 30" version="1.1" xmlns="http://www.w3.org/2000/svg" xmlns:xlink="http://www.w3.org/1999/xlink" xml:space="preserve" style="fill-rule:evenodd;clip-rule:evenodd;stroke-linejoin:round;stroke-miterlimit:1.41421;"><g id="vimeo"><path d="M21.68,7.402c1.822,0.049 2.732,1.081 2.741,3.107c0,0.133 -0.005,0.274 -0.009,0.415c-0.079,1.717 -1.359,4.052 -3.839,7.013c-2.556,3.099 -4.723,4.653 -6.506,4.661c-1.109,0 -2.031,-0.948 -2.768,-2.846l-0.777,-2.605l-0.763,-2.6c-0.565,-1.884 -1.17,-2.824 -1.814,-2.824c-0.141,0 -0.631,0.274 -1.47,0.821l-0.896,-1.06l1.39,-1.151l1.365,-1.139c1.222,-0.979 2.153,-1.514 2.788,-1.588c0.088,-0.009 0.173,-0.014 0.261,-0.014c1.306,0 2.128,0.94 2.445,2.825c0.181,1.072 0.331,1.946 0.45,2.618c0.115,0.67 0.212,1.137 0.292,1.407c0.432,1.779 0.9,2.675 1.398,2.684c0.389,0 0.98,-0.583 1.78,-1.744c0.785,-1.192 1.204,-2.074 1.262,-2.648c0.012,-0.12 0.021,-0.225 0.021,-0.326c0,-0.782 -0.428,-1.17 -1.283,-1.17c-0.433,0 -0.893,0.093 -1.387,0.274c0.883,-2.732 2.587,-4.101 5.106,-4.11l0.213,0Z" style="fill:none;stroke:#9ca1bd;stroke-width:1px;"/></g></svg>