<?xml version="1.0" encoding="UTF-8" standalone="no"?><!DOCTYPE svg PUBLIC "-//W3C//DTD SVG 1.1//EN" "http://www.w3.org/Graphics/SVG/1.1/DTD/svg11.dtd"><svg width="100%" height="100%" viewBox="0 0 30 30" version="1.1" xmlns="http://www.w3.org/2000/svg" xmlns:xlink="http://www.w3.org/1999/xlink" xml:space="preserve" style="fill-rule:evenodd;clip-rule:evenodd;stroke-linejoin:round;stroke-miterlimit:1.41421;"><g id="youtube"><path d="M12.793,17.792l-0.001,-6.007l5.777,3.014l-5.776,2.993Zm12.683,-7.048c0,0 -0.209,-1.473 -0.85,-2.122c-0.813,-0.852 -1.724,-0.856 -2.142,-0.906c-2.992,-0.216 -7.479,-0.216 -7.479,-0.216l-0.01,0c0,0 -4.487,0 -7.479,0.216c-0.418,0.05 -1.329,0.054 -2.142,0.906c-0.641,0.649 -0.85,2.122 -0.85,2.122c0,0 -0.214,1.73 -0.214,3.46l0,1.622c0,1.73 0.214,3.46 0.214,3.46c0,0 0.209,1.474 0.85,2.122c0.813,0.852 1.881,0.825 2.357,0.914c1.71,0.164 7.269,0.215 7.269,0.215c0,0 4.492,-0.007 7.484,-0.223c0.418,-0.05 1.329,-0.054 2.142,-0.906c0.641,-0.648 0.85,-2.122 0.85,-2.122c0,0 0.214,-1.73 0.214,-3.46l0,-1.622c0,-1.73 -0.214,-3.46 -0.214,-3.46Z" style="fill:none;stroke:#9ca1bd;stroke-width:1px;"/></g></svg>